<?xml version="1.0" encoding="utf-8"?>
<svg width="1024" height="1024" viewBox="0 0 1024 1024" fill="none" stroke="none" version="1.1" xmlns:xlink="http://www.w3.org/1999/xlink" xmlns="http://www.w3.org/2000/svg">
  <defs>
    <path id="path_1" d="M1024 0L1024 0L1024 1024L0 1024L0 0L1024 0Z" />
    <rect id="rect_2" x="0" y="0" width="1024" height="1024" />
    <clipPath id="clip_path_3">
      <use xlink:href="#rect_2" />
    </clipPath>
    <rect id="rect_4" x="0" y="0" width="1024" height="512" />
    <clipPath id="clip_path_5">
      <use xlink:href="#rect_4" />
    </clipPath>
  </defs>
  <g id="Icon 1024" opacity="1" clip-path="url(#clip_path_3)">
    <g>
      <use xlink:href="#path_1" style="mix-blend-mode:normal;" />
      <g>
        <g id="Group" transform="translate(0 256)">
          <g clip-path="url(#clip_path_5)" style="mix-blend-mode:normal;" transform="translate(0 173.272)">
            <path d="M63.504 96.912Q63.504 83.808 57.024 76.752Q50.544 69.696 39.744 69.696Q33.696 69.696 30.312 70.128Q26.928 70.56 24.912 71.136L24.912 118.368Q27.36 120.384 31.968 122.256Q36.576 124.128 42.048 124.128Q47.808 124.128 51.912 122.04Q56.016 119.952 58.608 116.28Q61.2 112.608 62.352 107.64Q63.504 102.672 63.504 96.912ZM77.472 96.912Q77.472 105.408 75.24 112.608Q73.008 119.808 68.688 124.992Q64.368 130.176 58.104 133.056Q51.84 135.936 43.776 135.936Q37.296 135.936 32.328 134.208Q27.36 132.48 24.912 130.896L24.912 160.848L11.52 160.848L11.52 61.632Q16.272 60.48 23.4 59.112Q30.528 57.744 39.888 57.744Q48.528 57.744 55.44 60.48Q62.352 63.216 67.248 68.256Q72.144 73.296 74.808 80.568Q77.472 87.84 77.472 96.912ZM123.984 57.744Q125.712 57.744 127.944 57.96Q130.176 58.176 132.336 58.536Q134.496 58.896 136.296 59.256Q138.096 59.616 138.96 59.904L136.656 71.568Q135.072 70.992 131.4 70.2Q127.728 69.408 121.968 69.408Q118.224 69.408 114.552 70.2Q110.88 70.992 109.728 71.28L109.728 134.208L96.336 134.208L96.336 62.496Q101.088 60.768 108.144 59.256Q115.2 57.744 123.984 57.744ZM218.016 96.768Q218.016 105.696 215.424 112.896Q212.832 120.096 208.152 125.28Q203.472 130.464 196.992 133.272Q190.512 136.08 182.88 136.08Q175.248 136.08 168.768 133.272Q162.288 130.464 157.608 125.28Q152.928 120.096 150.336 112.896Q147.744 105.696 147.744 96.768Q147.744 87.984 150.336 80.712Q152.928 73.44 157.608 68.256Q162.288 63.072 168.768 60.264Q175.248 57.456 182.88 57.456Q190.512 57.456 196.992 60.264Q203.472 63.072 208.152 68.256Q212.832 73.44 215.424 80.712Q218.016 87.984 218.016 96.768ZM204.048 96.768Q204.048 84.096 198.36 76.68Q192.672 69.264 182.88 69.264Q173.088 69.264 167.4 76.68Q161.712 84.096 161.712 96.768Q161.712 109.44 167.4 116.856Q173.088 124.272 182.88 124.272Q192.672 124.272 198.36 116.856Q204.048 109.44 204.048 96.768ZM285.264 75.168Q282.816 73.152 278.208 71.28Q273.6 69.408 268.128 69.408Q262.368 69.408 258.264 71.496Q254.16 73.584 251.568 77.256Q248.976 80.928 247.824 85.968Q246.672 91.008 246.672 96.768Q246.672 109.872 253.152 117Q259.632 124.128 270.432 124.128Q275.904 124.128 279.576 123.624Q283.248 123.12 285.264 122.544L285.264 75.168ZM285.264 24.768L298.656 22.464L298.656 132.048Q294.048 133.344 286.848 134.64Q279.648 135.936 270.288 135.936Q261.648 135.936 254.736 133.2Q247.824 130.464 242.928 125.424Q238.032 120.384 235.368 113.112Q232.704 105.84 232.704 96.768Q232.704 88.128 234.936 80.928Q237.168 73.728 241.488 68.544Q245.808 63.36 252.072 60.48Q258.336 57.6 266.4 57.6Q272.88 57.6 277.848 59.328Q282.816 61.056 285.264 62.64L285.264 24.768ZM317.52 96.912Q317.52 86.976 320.4 79.56Q323.28 72.144 328.032 67.248Q332.784 62.352 338.976 59.904Q345.168 57.456 351.648 57.456Q366.768 57.456 374.832 66.888Q382.896 76.32 382.896 95.616Q382.896 96.48 382.896 97.848Q382.896 99.216 382.752 100.368L331.488 100.368Q332.352 112.032 338.256 118.08Q344.16 124.128 356.688 124.128Q363.744 124.128 368.568 122.904Q373.392 121.68 375.84 120.528L377.712 131.76Q375.264 133.056 369.144 134.496Q363.024 135.936 355.248 135.936Q345.456 135.936 338.328 132.984Q331.2 130.032 326.592 124.848Q321.984 119.664 319.752 112.536Q317.52 105.408 317.52 96.912ZM368.928 89.568Q369.072 80.496 364.392 74.664Q359.712 68.832 351.504 68.832Q346.896 68.832 343.368 70.632Q339.84 72.432 337.392 75.312Q334.944 78.192 333.576 81.936Q332.208 85.68 331.776 89.568L368.928 89.568ZM419.616 124.56Q427.824 124.56 431.784 122.4Q435.744 120.24 435.744 115.488Q435.744 110.592 431.856 107.712Q427.968 104.832 419.04 101.232Q414.72 99.504 410.76 97.704Q406.8 95.904 403.92 93.456Q401.04 91.008 399.312 87.552Q397.584 84.096 397.584 79.056Q397.584 69.12 404.928 63.288Q412.272 57.456 424.944 57.456Q428.112 57.456 431.28 57.816Q434.448 58.176 437.184 58.68Q439.92 59.184 442.008 59.76Q444.096 60.336 445.248 60.768L442.8 72.288Q440.64 71.136 436.032 69.912Q431.424 68.688 424.944 68.688Q419.328 68.688 415.152 70.92Q410.976 73.152 410.976 77.904Q410.976 80.352 411.912 82.224Q412.848 84.096 414.792 85.608Q416.736 87.12 419.616 88.416Q422.496 89.712 426.528 91.152Q431.856 93.168 436.032 95.112Q440.208 97.056 443.16 99.648Q446.112 102.24 447.696 105.912Q449.28 109.584 449.28 114.912Q449.28 125.28 441.576 130.608Q433.872 135.936 419.616 135.936Q409.68 135.936 404.064 134.28Q398.448 132.624 396.432 131.76L398.88 120.24Q401.184 121.104 406.224 122.832Q411.264 124.56 419.616 124.56ZM493.488 93.024Q497.808 96.336 502.632 101.232Q507.456 106.128 512.136 111.816Q516.816 117.504 520.992 123.336Q525.168 129.168 528.048 134.208L512.352 134.208Q509.328 129.168 505.368 123.912Q501.408 118.656 497.088 113.832Q492.768 109.008 488.304 104.976Q483.84 100.944 479.808 98.208L479.808 134.208L466.416 134.208L466.416 24.768L479.808 22.464L479.808 90.72Q483.264 87.264 487.44 83.088Q491.616 78.912 495.648 74.592Q499.68 70.272 503.28 66.312Q506.88 62.352 509.472 59.328L525.168 59.328Q521.856 62.928 517.968 67.248Q514.08 71.568 509.904 75.96Q505.728 80.352 501.48 84.744Q497.232 89.136 493.488 93.024Z" transform="translate(246.968 0)" style="fill:#000000;" />
          </g>
          <path id="Rectangle" d="M15.8984 0L178.672 0C187.452 0 194.57 7.11798 194.57 15.8984L194.57 16L0 16L0 15.8984C0 7.11798 7.11798 0 15.8984 0Z" style="fill:#000000;fill-rule:evenodd;mix-blend-mode:normal;" transform="translate(532.23 184)" />
        </g>
      </g>
    </g>
  </g>
</svg>